[img]http://img231.imageshack.us/img231/448/thebournelegacy.jpg[/img]

[b][size=200][color=black]PLOT[/color][/size][/b]

[code]An expansion of the universe from Robert Ludlum's novels, 
centered on a new hero whose stakes have been triggered by the 
events of the previous three films.[/code]

[b][size=200][color=black]IMDB[/color][/size][/b]

[code]http://www.imdb.com/title/tt1194173/[/code]

[b][size=200][color=black]MOVIE INFO[/color][/size][/b]

[code]The Bourne Legacy [2012] BRRip x264 AAC-V3nom

Format                                   : MPEG-4
Format profile                           : Base Media / Version 2
Codec ID                                 : mp42
File size                                : 350 MiB
Duration                                 : 2h 15mn
Overall bit rate mode                    : Variable
Overall bit rate                         : 362 Kbps
Encoded date                             : UTC 2012-11-29 19:59:46
Tagged date                              : UTC 2012-11-29 20:33:16

Video
ID                                       : 1
Format                                   : AVC
Format/Info                              : Advanced Video Codec
Format profile                           : Main@L2.1
Format settings, CABAC                   : Yes
Format settings, ReFrames                : 4 frames
Codec ID                                 : avc1
Codec ID/Info                            : Advanced Video Coding
Duration                                 : 2h 15mn
Bit rate mode                            : Variable
Bit rate                                 : 230 Kbps
Width                                    : 624 pixels
Height                                   : 256 pixels
Display aspect ratio                     : 2.40:1
Frame rate mode                          : Variable
Frame rate                               : 23.976 fps
Minimum frame rate                       : 23.974 fps
Maximum frame rate                       : 23.981 fps
Color space                              : YUV
Chroma subsampling                       : 4:2:0
Bit depth                                : 8 bits
Scan type                                : Progressive
Bits/(Pixel*Frame)                       : 0.060
Stream size                              : 221 MiB (63%)
Writing library                          : x264 core 112

Audio
ID                                       : 2
Format                                   : AAC
Format/Info                              : Advanced Audio Codec
Format profile                           : LC
Codec ID                                 : 40
Duration                                 : 2h 15mn
Bit rate mode                            : Variable
Bit rate                                 : 128 Kbps
Maximum bit rate                         : 146 Kbps
Channel(s)                               : 2 channels
Channel positions                        : Front: L R
Sampling rate                            : 48.0 KHz
Compression mode                         : Lossy
Delay relative to video                  : 83ms
Stream size                              : 124 MiB (35%)
Encoded date                             : UTC 2012-11-29 19:59:46
Tagged date                              : UTC 2012-11-29 20:33:10[/code]

[b][size=200][color=black]SOURCE[/color][/size][/b]

[code]The Bourne Legacy[2012]BRRip XviD-ETRG (Thanks)[/code]

[b][size=200][color=black]SCREENSHOTS[/color][/size][/b]

[img]http://img827.imageshack.us/img827/3438/thebournelegacy2012brri.jpg[/img]

[img]http://kastatic.com/i2/users/133df62bbf28e62494bb17fe11078f1a.gif[/img][img]http://kastatic.com/i2/users/133df62bbf28e62494bb17fe11078f1a.gif[/img]